# xmcd
#
# Track frame offsets:
# 150
# 11028
# 29696
# 44277
# 55322
# 67258
# 79515
# 88826
# 101695
# 113692
# 125134
# 136578
# 149307
# 161776
# 175581
# 187205
# 198050
#
# Disc length: 2797 seconds
#
# Revision: 0
# Processed by: cddbd v1.5.2PL0 Copyright (c) Steve Scherf et al.
# Submitted via: Axialis_AX_CDPlayer 2.6
#
DISCID=f20aeb11
DTITLE=Smokey Hogg - Sings The Blues
DYEAR=1900
DGENRE=
TTITLE0=Good Morning Little Schoolgirl (1947)
TTITLE1=Coming Back Home To You Again (1950)
TTITLE2=Look In Your Eyes Pretty Mama (1950)
TTITLE3=You Can't Keep Your Business Straight (1950)
TTITLE4=Worryin' Mind (1947)
TTITLE5=My Baby's Worryin' Me (1947)
TTITLE6=Runaway (1950)
TTITLE7=You Just Gotta Go (1947)
TTITLE8=It's Raining Here (1951)
TTITLE9=I Got Your Picture (1950)
TTITLE10=When You Get Old (1950)
TTITLE11=Goin' Back To Chicago (1950)
TTITLE12=Too Many Drivers (1947)
TTITLE13=Country Girl (1947)
TTITLE14=What More Can A Woman Do (1947)
TTITLE15=Oh, Woman, Oh (1947)
TTITLE16=Long Tall Mama (1947)
EXTD=Andrew Smokey Hogg
EXTT0=
EXTT1=
EXTT2=
EXTT3=
EXTT4=
EXTT5=
EXTT6=
EXTT7=
EXTT8=
EXTT9=
EXTT10=
EXTT11=
EXTT12=
EXTT13=
EXTT14=
EXTT15=
EXTT16=
PLAYORDER=
